<?xml version="1.0" encoding="UTF-8"?>
<svg id="Layer_2" data-name="Layer 2" xmlns="http://www.w3.org/2000/svg" viewBox="0 0 300.34 45.42">
  <defs>
    <style>
      .cls-1 {
        fill: #00539e;
      }
    </style>
  </defs>
  <g id="Layer_1-2" data-name="Layer 1">
    <g>
      <g>
        <path class="cls-1" d="m247.48,16.15c-.21.98-2.45,7.6-3.2,9.52h6.09c-.64-1.94-2.64-8.57-2.88-9.52Z"/>
        <path class="cls-1" d="m199.28,24.26h-2.94v5.34h3c4.83.29,4.68-5.74-.06-5.34Z"/>
        <path class="cls-1" d="m202.31,18.31c.2-2.84-3.87-2.52-5.97-2.48v5.16c2.15.04,6.12.44,5.97-2.68Z"/>
        <path class="cls-1" d="m266.6,15.83h-3.09v5.8h2.68c4.51.56,5-6.07.4-5.8Z"/>
        <path class="cls-1" d="m300.34,22.71c0-10.41-6.95-19.75-18.66-22.71H72.56c-14.95,3.75-22.17,17.95-17.05,31.46,4.01,8.84,12.15,13.96,21.07,13.96h205.09c11.71-2.97,18.66-12.3,18.66-22.71Zm-209.38,10.17h-12.12V12.54h3.98v16.82h8.13v3.52Zm6.43,0h-3.98V12.54h3.98v20.34Zm14.94,0h-4.76l-7.01-20.34h4.3c1.01,3.02,4.51,13.63,5.08,16.01.56-2.35,4.08-13.03,5.08-16.01h4.07l-6.75,20.34Zm22.15,0h-12.23V12.54h11.94v3.29h-7.96v4.87h7.3v3.29h-7.3v5.6h8.25v3.29Zm33.58,0h-4.79c-.77-3.01-3.18-12.84-3.52-15.12-.31,2.27-2.8,12.13-3.61,15.12h-4.79l-5.05-20.34h4.1c.74,3.11,3.2,13.68,3.49,16.1.19-2.45,2.88-13,3.69-16.1h4.47c.82,3.11,3.52,13.63,3.72,16.1.28-2.42,2.78-13,3.52-16.1h3.89l-5.13,20.34Zm20.68,0h-12.23V12.54h11.94v3.29h-7.96v4.87h7.3v3.29h-7.3v5.6h8.25v3.29Zm10.12,0h-6.52V12.54h6.52c7.2-1.02,10.75,7.61,3.84,9.81,7.29,1.59,4.73,11.87-3.84,10.53Zm15.4,0h-3.98V12.54h3.98v20.34Zm20.65,0h-5.28c-1.21-2.42-6.44-12.57-7.13-14.57v14.57h-3.92V12.54h5.28c1.25,2.47,6.5,12.47,7.13,14.54v-14.54h3.92v20.34Zm17.71,0l-1.27-3.98h-8.25l-1.44,3.98h-4.15l7.79-20.34h4.5l7.12,20.34h-4.3Zm18.14,0l-5.19-7.96h-2.08v7.96h-3.98V12.54h6.84c8.23-1.05,10,9.89,3.55,11.83l5.45,8.51h-4.59Z"/>
      </g>
      <g>
        <path class="cls-1" d="m21.38,1.02c-28.51.49-28.51,42.9,0,43.38,28.51-.49,28.51-42.9,0-43.38Zm0,37.96C0,38.62,0,6.81,21.38,6.44c21.38.37,21.38,32.17,0,32.54Z"/>
        <path class="cls-1" d="m14.37,22.71v-8.13c4.69,2.03,14.12,6.1,18.8,8.13-4.69,2.03-14.12,6.1-18.8,8.13v-8.13Z"/>
      </g>
    </g>
  </g>
</svg>